<svg id="Ebene_1_Kopie" data-name="Ebene 1 Kopie" xmlns="http://www.w3.org/2000/svg" viewBox="0 0 2000 2000"><defs><style>.cls-1{fill:#38a8e0;}.cls-2{fill:#683b11;}</style></defs><title>signalwerk</title><polygon class="cls-1" points="247.44 0 412.4 285.85 412.39 286 742.31 286 577.36 0 247.44 0"/><polygon class="cls-1" points="247.44 571 412.4 856.85 412.39 857 742.31 857 577.36 571 247.44 571"/><polygon class="cls-1" points="742.31 286 907.27 571 1237.18 571 1072.23 286 742.31 286"/><polygon class="cls-1" points="1732.06 286 1567.1 0 1237.18 0 1402.14 286 1732.06 286"/><polygon class="cls-1" points="247.44 1143 412.4 1428.85 412.39 1429 742.31 1429 577.36 1143 247.44 1143"/><polygon class="cls-1" points="742.31 857 907.27 1143 1237.18 1143 1072.23 857 742.31 857"/><polygon class="cls-1" points="1237.18 571 1402.14 857 1732.06 857 1567.1 571 1237.18 571"/><polygon class="cls-1" points="247.44 1714 412.4 1999.85 412.39 2000 742.31 2000 577.36 1714 247.44 1714"/><polygon class="cls-1" points="742.31 1429 907.27 1714 1237.18 1714 1072.23 1429 742.31 1429"/><polygon class="cls-1" points="1237.18 1143 1402.14 1429 1732.06 1429 1567.1 1143 1237.18 1143"/><polygon class="cls-1" points="1237.18 1714 1402.14 2000 1732.06 2000 1567.1 1714 1237.18 1714"/><polygon class="cls-2" points="742.31 286 412.39 286 247.44 571 577.36 571 742.31 286"/><polygon class="cls-2" points="1237.18 0 907.27 0 742.31 286 1072.23 286 1237.18 0"/><polygon class="cls-2" points="742.31 857 412.39 857 247.44 1143 577.36 1143 742.31 857"/><polygon class="cls-2" points="1237.18 571 907.27 571 742.31 857 1072.23 857 1237.18 571"/><polygon class="cls-2" points="1732.06 286 1402.14 286 1237.18 571 1567.1 571 1732.06 286"/><polygon class="cls-2" points="247.44 1714 577.36 1714 742.31 1429 412.39 1429 247.44 1714"/><polygon class="cls-2" points="742.31 1429 1072.23 1429 1237.18 1143 907.27 1143 742.31 1429"/><polygon class="cls-2" points="1237.18 1143 1567.1 1143 1732.06 857 1402.14 857 1237.18 1143"/><polygon class="cls-2" points="742.31 2000 1072.23 2000 1237.18 1714 907.27 1714 742.31 2000"/><polygon class="cls-2" points="1237.18 1714 1567.1 1714 1732.06 1429 1402.14 1429 1237.18 1714"/><polygon class="cls-1" points="2000 286 1732.06 286 1897.01 571 2000 571 2000 286"/><polygon class="cls-1" points="2000 857 1732.06 857 1897.01 1143 2000 1143 2000 857"/><polygon class="cls-1" points="2000 1429 1732.06 1429 1897.01 1714 2000 1714 2000 1429"/><polygon class="cls-2" points="2000 0 1897.01 0 1732.06 286 2000 286 2000 0"/><polygon class="cls-2" points="2000 571 1897.01 571 1732.06 857 2000 857 2000 571"/><polygon class="cls-2" points="2000 1143 1897.01 1143 1732.06 1429 2000 1429 2000 1143"/><polygon class="cls-2" points="1897.01 1714 1732.06 2000 2000 2000 2000 1714 1897.01 1714"/><polygon class="cls-1" points="0 571 247.44 571 82.48 286 0 286 0 571"/><polygon class="cls-1" points="0 1143 247.44 1143 82.48 857 0 857 0 1143"/><polygon class="cls-1" points="0 1714 247.44 1714 82.48 1429 0 1429 0 1714"/><polygon class="cls-2" points="82.48 286 247.44 0 0 0 0 286 82.48 286"/><polygon class="cls-2" points="0 571 0 857 82.48 857 247.44 571 0 571"/><polygon class="cls-2" points="0 1429 82.48 1429 247.44 1143 0 1143 0 1429"/><polygon class="cls-2" points="0 2000 82.48 2000 247.44 1714 0 1714 0 2000"/></svg>
